<svg width="64" height="81" viewBox="0 0 64 81" fill="none" xmlns="http://www.w3.org/2000/svg">
<path d="M2.43916 81V65.4697L32.102 40.9318C34.0692 39.3011 35.7517 37.774 37.1494 36.3504C38.573 34.9009 39.6601 33.4126 40.4107 31.8854C41.1873 30.3583 41.5755 28.6629 41.5755 26.7992C41.5755 24.7544 41.1355 23.0073 40.2554 21.5578C39.4013 20.1083 38.2106 18.9953 36.6835 18.2187C35.1563 17.4163 33.3962 17.0151 31.4032 17.0151C29.4101 17.0151 27.65 17.4163 26.1229 18.2187C24.6216 19.0211 23.4568 20.1989 22.6285 21.7519C21.8003 23.3049 21.3861 25.1944 21.3861 27.4205H0.886125C0.886125 21.8295 2.14149 17.0151 4.65222 12.9773C7.16296 8.93939 10.709 5.83333 15.2905 3.65909C19.8719 1.48484 25.2428 0.397722 31.4032 0.397722C37.7706 0.397722 43.2839 1.42013 47.9429 3.46496C52.6279 5.4839 56.2387 8.33112 58.7753 12.0066C61.3378 15.6821 62.6191 19.9918 62.6191 24.9356C62.6191 27.9899 61.9849 31.0312 60.7166 34.0597C59.4483 37.0622 57.1705 40.3883 53.8833 44.0379C50.596 47.6875 45.924 52.036 39.8672 57.0833L32.4126 63.2955V63.7614H63.4733V81H2.43916Z" fill="#FADF63"/>
</svg>
