<svg width="66" height="83" viewBox="0 0 66 83" fill="none" xmlns="http://www.w3.org/2000/svg">
<path d="M32.4516 82.0871C26.1877 82.0871 20.6227 81.0129 15.7565 78.8646C10.9162 76.6903 7.11131 73.7008 4.34174 69.8958C1.57217 66.0909 0.174439 61.7165 0.148555 56.7727H21.891C21.9169 58.2999 22.3828 59.6717 23.2887 60.8883C24.2205 62.0789 25.4888 63.0107 27.0936 63.6837C28.6984 64.3567 30.5362 64.6932 32.6069 64.6932C34.5999 64.6932 36.36 64.3437 37.8872 63.6449C39.4143 62.9201 40.605 61.9236 41.4592 60.6553C42.3133 59.387 42.7275 57.9375 42.7016 56.3068C42.7275 54.702 42.2357 53.2784 41.2262 52.036C40.2426 50.7936 38.8578 49.8229 37.0719 49.1241C35.2859 48.4252 33.2281 48.0758 30.8986 48.0758H22.8228V33.1667H30.8986C33.0469 33.1667 34.9364 32.8172 36.5671 32.1184C38.2237 31.4195 39.5049 30.4489 40.4109 29.2064C41.3427 27.964 41.7957 26.5404 41.7698 24.9356C41.7957 23.3826 41.4203 22.0107 40.6438 20.8201C39.8673 19.6294 38.7802 18.6976 37.3825 18.0246C36.0106 17.3516 34.4188 17.0151 32.6069 17.0151C30.6397 17.0151 28.8796 17.3646 27.3266 18.0634C25.7994 18.7623 24.5958 19.733 23.7158 20.9754C22.8357 22.2178 22.3828 23.6414 22.3569 25.2462H1.70159C1.72747 20.38 3.06049 16.0833 5.70064 12.3561C8.36667 8.62878 12.0163 5.70391 16.6495 3.58143C21.2827 1.45896 26.6018 0.397722 32.6069 0.397722C38.4825 0.397722 43.6722 1.39425 48.176 3.38731C52.7057 5.38036 56.2388 8.12405 58.7755 11.6184C61.338 15.0868 62.6063 19.06 62.5804 23.5379C62.6321 27.9899 61.105 31.6395 57.9989 34.4867C54.9188 37.334 51.0103 39.0164 46.2736 39.5341V40.1553C52.6927 40.8542 57.5201 42.8213 60.7556 46.0568C63.991 49.2664 65.5829 53.3043 65.5311 58.1705C65.557 62.8295 64.1593 66.958 61.338 70.5559C58.5425 74.1537 54.647 76.9751 49.6514 79.0199C44.6817 81.0647 38.9484 82.0871 32.4516 82.0871Z" fill="#AD78F3"/>
</svg>
