<svg width="110" height="110" viewBox="0 0 110 110" fill="none" xmlns="http://www.w3.org/2000/svg">
<path fill-rule="evenodd" clip-rule="evenodd" d="M22.9167 32.0833C22.9167 14.3642 37.2809 0 55.0001 0C72.7192 0 87.0834 14.3642 87.0834 32.0833C87.0834 49.8025 72.7192 64.1667 55.0001 64.1667C37.2809 64.1667 22.9167 49.8025 22.9167 32.0833ZM32.5418 27.5H39.2992C39.9892 22.7487 41.6374 18.281 43.4131 14.543C43.923 13.4696 44.4508 12.4413 44.9807 11.4672C38.6675 14.5411 33.977 20.4295 32.5418 27.5ZM32.5418 36.6667H39.2992C39.9892 41.4179 41.6374 45.8856 43.4131 49.6236C43.923 50.6971 44.4508 51.7254 44.9808 52.6995C38.6675 49.6256 33.977 43.7372 32.5418 36.6667ZM54.9999 51.6674C56.09 49.9405 57.2862 47.8567 58.3734 45.5498C59.7064 42.7213 60.8111 39.6924 61.4043 36.6667H48.5957C49.1989 39.7437 50.3309 42.8231 51.693 45.6902C52.7626 47.9417 53.9324 49.9761 54.9999 51.6674ZM70.7008 36.6667C70.0208 41.3495 68.41 45.7557 66.6653 49.4577C66.131 50.5914 65.5763 51.6755 65.0191 52.6996C71.3325 49.6258 76.0231 43.7373 77.4583 36.6667H70.7008ZM70.7009 27.5C70.0319 22.8925 68.462 18.5537 66.7515 14.8918C66.1909 13.6918 65.6066 12.5462 65.0196 11.4673C71.3327 14.5412 76.0231 20.4296 77.4583 27.5H70.7009ZM55.0001 12.4989C56.1149 14.2649 57.3401 16.4034 58.4462 18.7714C59.7474 21.5569 60.8224 24.5305 61.4044 27.5H48.5957C49.1989 24.423 50.3309 21.3435 51.693 18.4764C52.7626 16.2247 53.9325 14.1902 55.0001 12.4989Z" fill="#AD78F3"/>
<path fill-rule="evenodd" clip-rule="evenodd" d="M22.9167 59.5831C15.3228 59.5831 9.16672 65.7391 9.16672 73.3331C9.16672 80.927 15.3228 87.0831 22.9167 87.0831C30.5106 87.0831 36.6667 80.927 36.6667 73.3331C36.6667 65.7391 30.5106 59.5831 22.9167 59.5831ZM18.3334 73.3331C18.3334 70.8018 20.3854 68.7497 22.9167 68.7497C25.448 68.7497 27.5001 70.8018 27.5001 73.3331C27.5001 75.8644 25.448 77.9164 22.9167 77.9164C20.3854 77.9164 18.3334 75.8644 18.3334 73.3331Z" fill="#343434"/>
<path d="M13.1939 100.277C15.7726 97.6984 19.2699 96.2497 22.9167 96.2497C26.5634 96.2497 30.0608 97.6984 32.6394 100.277C35.218 102.856 36.6667 106.353 36.6667 110H45.8333C45.8333 103.922 43.4189 98.0929 39.1212 93.7952C34.8235 89.4975 28.9946 87.0831 22.9167 87.0831C16.8388 87.0831 11.0098 89.4975 6.71214 93.7952C2.41443 98.0929 0 103.922 0 110H9.16667C9.16667 106.353 10.6153 102.856 13.1939 100.277Z" fill="#343434"/>
<path d="M87.0834 96.2497C83.4367 96.2497 79.9393 97.6984 77.3607 100.277C74.782 102.856 73.3334 106.353 73.3334 110H64.1667C64.1667 103.922 66.5812 98.0929 70.8789 93.7952C75.1766 89.4975 81.0055 87.0831 87.0834 87.0831C93.1613 87.0831 98.9902 89.4975 103.288 93.7952C107.586 98.0929 110 103.922 110 110H100.833C100.833 106.353 99.3847 102.856 96.8061 100.277C94.2275 97.6984 90.7301 96.2497 87.0834 96.2497Z" fill="#343434"/>
<path fill-rule="evenodd" clip-rule="evenodd" d="M87.0834 59.5831C79.4895 59.5831 73.3334 65.7391 73.3334 73.3331C73.3334 80.927 79.4895 87.0831 87.0834 87.0831C94.6773 87.0831 100.833 80.927 100.833 73.3331C100.833 65.7391 94.6774 59.5831 87.0834 59.5831ZM82.5001 73.3331C82.5001 70.8018 84.5521 68.7497 87.0834 68.7497C89.6147 68.7497 91.6668 70.8018 91.6668 73.3331C91.6668 75.8644 89.6147 77.9164 87.0834 77.9164C84.5521 77.9164 82.5001 75.8644 82.5001 73.3331Z" fill="#343434"/>
</svg>
