<svg width="102" height="15" viewBox="0 0 102 15" fill="none" xmlns="http://www.w3.org/2000/svg">
<path d="M28.9695 0.391602L26.9086 5.54354H20.7261L25.8782 8.97817L23.8173 14.1301L28.9695 10.6955L34.1216 14.1301L32.0607 8.97817L37.2129 5.54354H31.0303L28.9695 0.391602Z" fill="#EBFF00"/>
<path d="M28.9695 0.391602L26.9086 5.54354H20.7261L25.8782 8.97817L23.8173 14.1301L28.9695 10.6955L34.1216 14.1301L32.0607 8.97817L37.2129 5.54354H31.0303L28.9695 0.391602Z" fill="#EBFF00"/>
<path d="M28.9695 0.391602L26.9086 5.54354H20.7261L25.8782 8.97817L23.8173 14.1301L28.9695 10.6955L34.1216 14.1301L32.0607 8.97817L37.2129 5.54354H31.0303L28.9695 0.391602Z" fill="#EBFF00"/>
<path d="M50.6379 0.391602L48.5771 5.54354H42.3945L47.5467 8.97817L45.4858 14.1301L50.6379 10.6955L55.79 14.1301L53.7292 8.97817L58.8813 5.54354H52.6988L50.6379 0.391602Z" fill="#EBFF00"/>
<path d="M72.3064 0L70.2455 5.15194H64.063L69.2151 8.58657L67.1543 13.7385L72.3064 10.3039L77.4585 13.7385L75.3977 8.58657L80.5498 5.15194H74.3672L72.3064 0Z" fill="#EBFF00"/>
<path d="M93.5039 0.391602L91.443 5.54354H85.2605L90.4126 8.97817L88.3518 14.1301L93.5039 10.6955L98.656 14.1301L96.5952 8.97817L101.747 5.54354H95.5647L93.5039 0.391602Z" fill="#EBFF00"/>
<path d="M8.24339 0.391602L6.18254 5.54354H0L5.15212 8.97817L3.09127 14.1301L8.24339 10.6955L13.3955 14.1301L11.3347 8.97817L16.4868 5.54354H10.3042L8.24339 0.391602Z" fill="#EBFF00"/>
</svg>
