<svg width="110" height="110" viewBox="0 0 110 110" fill="none" xmlns="http://www.w3.org/2000/svg">
<path d="M110 9.16667C110 14.2293 105.896 18.3333 100.833 18.3333C99.9239 18.3333 99.0454 18.2009 98.2161 17.9543L86.5502 28.9953C86.8953 29.9602 87.0833 30.9998 87.0833 32.0833C87.0833 37.1459 82.9793 41.25 77.9167 41.25C73.9179 41.25 70.5171 38.6895 69.2645 35.1186L39.4494 28.3737C37.7791 30.6246 35.1016 32.0833 32.0833 32.0833C30.9253 32.0833 29.8174 31.8686 28.7973 31.4768L7.98772 54.5625L1.17895 48.425L23.0071 24.2094C22.9475 23.787 22.9167 23.3554 22.9167 22.9167C22.9167 17.8541 27.0207 13.75 32.0833 13.75C35.8251 13.75 39.0433 15.9919 40.4678 19.2058L70.9671 26.1055C72.6482 24.153 75.1381 22.9167 77.9167 22.9167C78.4547 22.9167 78.9818 22.963 79.4944 23.0519L91.9153 11.2964C91.7527 10.6129 91.6667 9.89985 91.6667 9.16667C91.6667 4.10406 95.7707 0 100.833 0C105.896 0 110 4.10406 110 9.16667Z" fill="#FADF63"/>
<path fill-rule="evenodd" clip-rule="evenodd" d="M40.1042 50.4167C40.1042 47.8854 42.1562 45.8333 44.6875 45.8333H65.3125C67.8438 45.8333 69.8958 47.8854 69.8958 50.4167V105.417C69.8958 107.948 67.8438 110 65.3125 110H44.6875C42.1562 110 40.1042 107.948 40.1042 105.417V50.4167ZM49.2708 55V100.833H60.7292V55H49.2708Z" fill="#343434"/>
<path fill-rule="evenodd" clip-rule="evenodd" d="M0 77.9167C0 75.3854 2.05203 73.3333 4.58333 73.3333H25.2083C27.7396 73.3333 29.7917 75.3854 29.7917 77.9167V105.417C29.7917 107.948 27.7396 110 25.2083 110H4.58333C2.05203 110 0 107.948 0 105.417V77.9167ZM9.16667 82.5V100.833H20.625V82.5H9.16667Z" fill="#343434"/>
<path fill-rule="evenodd" clip-rule="evenodd" d="M84.7917 59.5833C82.2604 59.5833 80.2083 61.6354 80.2083 64.1667V105.417C80.2083 107.948 82.2604 110 84.7917 110H105.417C107.948 110 110 107.948 110 105.417V64.1667C110 61.6354 107.948 59.5833 105.417 59.5833H84.7917ZM89.375 100.833V68.75H100.833V100.833H89.375Z" fill="#343434"/>
</svg>
