<svg width="84" height="79" viewBox="0 0 84 79" fill="none" xmlns="http://www.w3.org/2000/svg">
<mask id="mask0_717_440" style="mask-type:luminance" maskUnits="userSpaceOnUse" x="0" y="0" width="83" height="79">
<path d="M82.9435 41.6474L58.4795 0L0.954697 36.6076L25.4187 78.255L82.9435 41.6474Z" fill="white"/>
</mask>
<g mask="url(#mask0_717_440)">
<path d="M19.1987 53.5978L17.2136 50.2278C12.7862 54.2145 12.5711 56.0041 13.3539 57.3327C14.1367 58.6614 15.7633 59.2673 21.1846 56.97L19.1987 53.5978Z" fill="url(#paint0_linear_717_440)"/>
<path d="M37.8841 53.0125C41.4803 50.5342 45.1847 47.802 48.9532 44.7894C50.8846 43.2453 52.7417 41.7036 54.5244 40.1643C53.5463 34.8631 50.7344 30.0878 46.6403 26.7752C44.497 27.7444 42.3169 28.7803 40.0998 29.8827C35.7826 32.0325 31.7335 34.249 27.9496 36.4796C23.1953 34.3925 16.8145 34.9232 10.4288 38.9992L14.069 45.1794C14.7336 46.311 15.3981 46.8135 16.4753 46.1279L16.4933 46.1112L20.396 52.7376L24.4264 59.5808C23.2859 60.3067 23.4428 61.0957 24.1118 62.2312L27.7653 68.4349C34.2726 64.2802 37.6511 58.4422 37.8841 53.0125ZM48.7112 34.662C49.0105 35.1702 49.1626 35.7568 49.148 36.3476C49.1335 36.9384 48.953 37.5069 48.6294 37.9811C48.3058 38.4553 47.8536 38.814 47.33 39.0118C46.8065 39.2096 46.235 39.2377 45.688 39.0923C45.1409 38.9471 44.6428 38.635 44.2567 38.1955C43.8705 37.7561 43.6137 37.2091 43.5187 36.6237C43.4236 36.0383 43.4946 35.4408 43.7226 34.9067C43.9507 34.3726 44.3256 33.9259 44.7998 33.6232C45.4358 33.2173 46.2051 33.0988 46.9386 33.2936C47.6721 33.4884 48.3097 33.9806 48.7112 34.662ZM40.8993 39.6488C41.1986 40.1569 41.3506 40.7434 41.3358 41.3343C41.3212 41.9249 41.1409 42.4932 40.8172 42.9674C40.4937 43.4414 40.0414 43.8001 39.5179 43.9979C38.9944 44.1956 38.4232 44.2234 37.8763 44.0781C37.3291 43.933 36.8311 43.6209 36.445 43.1816C36.0589 42.7422 35.8024 42.1951 35.7073 41.6098C35.6122 41.0245 35.6831 40.4271 35.9113 39.893C36.1393 39.359 36.5141 38.9124 36.9883 38.6098C37.6243 38.2039 38.3936 38.0854 39.1269 38.2803C39.8604 38.4751 40.4979 38.9674 40.8993 39.6488ZM28.2917 47.6966C27.9924 47.1884 27.8403 46.6019 27.8552 46.0111C27.8697 45.4204 28.05 44.8522 28.3738 44.378C28.6973 43.9039 29.1496 43.5452 29.6731 43.3475C30.1966 43.1498 30.7678 43.1219 31.315 43.267C31.8619 43.4124 32.3599 43.7244 32.746 44.1638C33.132 44.6032 33.3888 45.1501 33.4836 45.7355C33.5788 46.3208 33.5079 46.9182 33.2796 47.4523C33.0517 47.9863 32.6768 48.4329 32.2026 48.7356C31.8878 48.9365 31.5369 49.0691 31.1698 49.1257C30.8029 49.1822 30.427 49.1617 30.0638 49.0652C29.7006 48.9687 29.3571 48.7981 29.053 48.5632C28.7489 48.3284 28.4898 48.034 28.2912 47.6964L28.2917 47.6966Z" fill="url(#paint1_linear_717_440)" fill-opacity="0.97"/>
<path d="M47.6436 35.3736C47.4063 34.9832 47.0353 34.7031 46.6108 34.5937C46.1862 34.4843 45.7421 34.5545 45.3746 34.7891C45.0071 35.0237 44.7456 35.4039 44.6467 35.8474C44.5478 36.291 44.6193 36.7623 44.8459 37.1595C45.0801 37.5571 45.452 37.8443 45.8799 37.9579C46.3079 38.0716 46.7567 38.0024 47.1277 37.7656C47.4987 37.5288 47.7615 37.1437 47.8582 36.6951C47.955 36.2465 47.8778 35.7711 47.6436 35.3736Z" fill="url(#paint2_linear_717_440)" fill-opacity="0.33"/>
<path d="M39.8804 40.3078L39.8787 40.3049C39.6415 39.9144 39.2705 39.6343 38.8458 39.525C38.4211 39.4157 37.9771 39.4859 37.6098 39.7204C37.2422 39.9551 36.9806 40.3352 36.8818 40.7787C36.7827 41.2224 36.8543 41.6937 37.081 42.0908C37.315 42.4885 37.6869 42.7758 38.115 42.8895C38.5428 43.0034 38.9919 42.9342 39.3629 42.6975C39.7341 42.4606 39.9969 42.0756 40.0936 41.6271C40.1906 41.1785 40.1134 40.7031 39.8793 40.3054L39.8804 40.3078Z" fill="url(#paint3_linear_717_440)" fill-opacity="0.13"/>
<path d="M56.6737 40.8073C61.8712 35.7564 67.5222 28.8026 64.9151 24.3639L64.8893 24.32C62.7676 20.7977 56.7815 20.8727 47.0963 24.5424L47.0755 24.5504L44.0823 25.7582C42.7426 26.3287 41.37 26.9514 39.9902 27.6143C39.7157 27.7462 39.4398 27.8802 39.1625 28.0165C37.3208 28.9219 35.4167 29.9238 33.49 31.0004C33.5628 30.1992 33.6837 29.4049 33.8521 28.6224C34.6551 24.9107 36.5213 21.576 39.2005 19.0652C41.8798 16.5545 45.244 14.9877 48.8422 14.575C52.4404 14.1622 56.1007 14.9232 59.3323 16.7559C62.564 18.5885 65.2125 21.4054 66.923 24.8287C68.6335 28.252 69.3242 32.1183 68.9024 35.9092C68.4806 39.7003 66.9665 43.2346 64.563 46.0385C62.1598 48.8428 58.9819 50.7826 55.4557 51.5981C51.9292 52.4132 48.2231 52.0654 44.8338 50.6009C46.6774 49.2708 48.4458 47.9239 50.1007 46.5885C50.3421 46.3935 50.5821 46.1983 50.8207 46.0031C52.0123 45.0246 53.1696 44.0345 54.2629 43.0517L56.6737 40.8073Z" fill="url(#paint4_linear_717_440)"/>
<path d="M70.6733 20.8387C67.9543 16.2365 63.8902 12.674 59.1152 10.7072C54.3401 8.74041 49.1227 8.47993 44.277 9.9664C39.4314 11.4529 35.23 14.6027 32.3284 18.9243C29.4269 23.2459 27.9881 28.4965 28.2371 33.8565C29.0733 33.383 29.9032 32.9199 30.7263 32.4676C30.7645 29.1056 31.5427 25.8191 32.9998 22.8667C34.6552 19.5247 37.1306 16.7267 40.1749 14.7567C43.2193 12.7867 46.7243 11.7146 50.3346 11.6492C53.9449 11.5837 57.532 12.5273 60.7322 14.3842C63.9323 16.2411 66.6317 18.9453 68.5565 22.2225C70.4813 25.4997 71.5631 29.2333 71.6923 33.0448C71.8213 36.8561 70.9931 40.6099 69.2917 43.9254C67.5901 47.2405 65.0758 49.9995 62.0037 51.9222C58.9317 53.8452 55.411 54.8634 51.7989 54.8739C48.5266 54.8784 45.2807 54.06 42.3293 52.4864C41.5713 53.0404 40.8031 53.5954 40.0246 54.1516C44.491 56.8942 49.6581 58.0131 54.7101 57.3317C59.7624 56.6502 64.4123 54.2074 67.9258 50.3882C71.4396 46.5693 73.617 41.5915 74.1145 36.2407C74.6122 30.8901 73.4016 25.4708 70.6739 20.8383L70.6733 20.8387Z" fill="url(#paint5_linear_717_440)"/>
</g>
<defs>
<linearGradient id="paint0_linear_717_440" x1="14.2264" y1="56.7638" x2="53.3221" y2="33.8013" gradientUnits="userSpaceOnUse">
<stop stop-color="#FFD700"/>
<stop offset="1" stop-color="#FFD700"/>
</linearGradient>
<linearGradient id="paint1_linear_717_440" x1="14.1002" y1="56.8973" x2="53.1521" y2="33.9604" gradientUnits="userSpaceOnUse">
<stop stop-color="#FFD700"/>
<stop offset="1" stop-color="#FFD700"/>
</linearGradient>
<linearGradient id="paint2_linear_717_440" x1="13.9393" y1="56.8426" x2="53.0219" y2="33.888" gradientUnits="userSpaceOnUse">
<stop stop-color="#FFD700"/>
<stop offset="1" stop-color="#FFD700"/>
</linearGradient>
<linearGradient id="paint3_linear_717_440" x1="13.9979" y1="56.7948" x2="53.079" y2="33.8411" gradientUnits="userSpaceOnUse">
<stop stop-color="#FFD700"/>
<stop offset="1" stop-color="#FFD700"/>
</linearGradient>
<linearGradient id="paint4_linear_717_440" x1="13.9426" y1="56.9703" x2="53.0239" y2="34.0161" gradientUnits="userSpaceOnUse">
<stop stop-color="#FFD700"/>
<stop offset="1" stop-color="#FFD700"/>
</linearGradient>
<linearGradient id="paint5_linear_717_440" x1="13.9303" y1="57.0033" x2="53.021" y2="34.0438" gradientUnits="userSpaceOnUse">
<stop stop-color="#FFD700"/>
<stop offset="1" stop-color="#FFD700"/>
</linearGradient>
</defs>
</svg>
