<svg width="110" height="111" viewBox="0 0 110 111" fill="none" xmlns="http://www.w3.org/2000/svg">
<path fill-rule="evenodd" clip-rule="evenodd" d="M46.25 27.75C46.25 12.4241 58.6741 0 74 0C89.3259 0 101.75 12.4241 101.75 27.75C101.75 33.7432 99.8501 39.2927 96.6197 43.829L109.645 56.8546L103.105 63.3954L90.079 50.3697C85.5427 53.6001 79.9932 55.5 74 55.5C58.6741 55.5 46.25 43.0759 46.25 27.75ZM74 9.25C63.7827 9.25 55.5 17.5327 55.5 27.75C55.5 37.9673 63.7827 46.25 74 46.25C84.2173 46.25 92.5 37.9673 92.5 27.75C92.5 17.5327 84.2173 9.25 74 9.25Z" fill="#FADF63"/>
<path d="M0 23.125C0 20.5707 2.07068 18.5 4.625 18.5H37V27.75H9.25V83.25H83.25V64.75H92.5V87.875C92.5 90.4293 90.4293 92.5 87.875 92.5H50.875V101.75H64.75V111H27.75V101.75H41.625V92.5H4.625C2.07068 92.5 0 90.4293 0 87.875V23.125Z" fill="#343434"/>
</svg>
